<svg width="72" height="16" viewBox="0 0 72 16" fill="none" xmlns="http://www.w3.org/2000/svg">
<path d="M8.95106 1.30902C8.65171 0.387709 7.3483 0.387701 7.04894 1.30902L5.84062 5.02786H1.93039C0.961671 5.02786 0.558886 6.26748 1.3426 6.83688L4.50604 9.13525L3.29772 12.8541C2.99837 13.7754 4.05284 14.5415 4.83656 13.9721L8 11.6738L11.1634 13.9721C11.9472 14.5415 13.0016 13.7754 12.7023 12.8541L11.494 9.13525L14.6574 6.83688C15.4411 6.26748 15.0383 5.02786 14.0696 5.02786L10.1594 5.02786L8.95106 1.30902Z" fill="#FFC85F" stroke="white"/>
<path d="M22.9511 1.30902C22.6517 0.387709 21.3483 0.387701 21.0489 1.30902L19.8406 5.02786H15.9304C14.9617 5.02786 14.5589 6.26748 15.3426 6.83688L18.506 9.13525L17.2977 12.8541C16.9984 13.7754 18.0528 14.5415 18.8366 13.9721L22 11.6738L25.1634 13.9721C25.9472 14.5415 27.0016 13.7754 26.7023 12.8541L25.494 9.13525L28.6574 6.83688C29.4411 6.26748 29.0383 5.02786 28.0696 5.02786L24.1594 5.02786L22.9511 1.30902Z" fill="#FFC85F" stroke="white"/>
<path d="M36.9511 1.30902C36.6517 0.387709 35.3483 0.387701 35.0489 1.30902L33.8406 5.02786H29.9304C28.9617 5.02786 28.5589 6.26748 29.3426 6.83688L32.506 9.13525L31.2977 12.8541C30.9984 13.7754 32.0528 14.5415 32.8366 13.9721L36 11.6738L39.1634 13.9721C39.9472 14.5415 41.0016 13.7754 40.7023 12.8541L39.494 9.13525L42.6574 6.83688C43.4411 6.26748 43.0383 5.02786 42.0696 5.02786L38.1594 5.02786L36.9511 1.30902Z" fill="#FFC85F" stroke="white"/>
<path d="M50.9511 1.30902C50.6517 0.387709 49.3483 0.387701 49.0489 1.30902L47.8406 5.02786H43.9304C42.9617 5.02786 42.5589 6.26748 43.3426 6.83688L46.506 9.13525L45.2977 12.8541C44.9984 13.7754 46.0528 14.5415 46.8366 13.9721L50 11.6738L53.1634 13.9721C53.9472 14.5415 55.0016 13.7754 54.7023 12.8541L53.494 9.13525L56.6574 6.83688C57.4411 6.26748 57.0383 5.02786 56.0696 5.02786L52.1594 5.02786L50.9511 1.30902Z" fill="#FFC85F" stroke="white"/>
<path d="M64.9511 1.30902C64.6517 0.387709 63.3483 0.387701 63.0489 1.30902L61.8406 5.02786H57.9304C56.9617 5.02786 56.5589 6.26748 57.3426 6.83688L60.506 9.13525L59.2977 12.8541C58.9984 13.7754 60.0528 14.5415 60.8366 13.9721L64 11.6738L67.1634 13.9721C67.9472 14.5415 69.0016 13.7754 68.7023 12.8541L67.494 9.13525L70.6574 6.83688C71.4411 6.26748 71.0383 5.02786 70.0696 5.02786L66.1594 5.02786L64.9511 1.30902Z" fill="#FFC85F" stroke="white"/>
</svg>
